<?xml version="1.0" encoding="UTF-8"?>
<svg width="163px" height="46px" viewBox="0 0 163 46" version="1.1" xmlns="http://www.w3.org/2000/svg" xmlns:xlink="http://www.w3.org/1999/xlink">
    <!-- Generator: Sketch 43.2 (39069) - http://www.bohemiancoding.com/sketch -->
    <title>Page 1</title>
    <desc>Created with Sketch.</desc>
    <defs>
        <polygon id="path-1" points="11.7431434 16.1767099 11.7431434 0.367611268 0.439320717 0.367611268 0.439320717 16.1767099 11.7431434 16.1767099"></polygon>
    </defs>
    <g id="Symbols" stroke="none" stroke-width="1" fill="none" fill-rule="evenodd">
        <g id="comp/menu/main" transform="translate(-24.000000, -46.000000)">
            <g id="Page-1" transform="translate(24.000000, 46.000000)">
                <path d="M74.9558422,10.8731042 L72.2666669,10.8731042 L72.2666669,19.9053014 L69.1605753,19.9053014 L69.1605753,10.8731042 L67.4500494,10.8731042 L67.4500494,9.37972394 L69.1605753,8.54654085 L69.1605753,7.71335775 C69.1605753,6.41952676 69.4800813,5.47490704 70.1184438,4.8788507 C70.756157,4.28279437 71.7776669,3.9847662 73.1836231,3.9847662 C74.2564359,3.9847662 75.210408,4.14349859 76.0455394,4.46161127 L75.2506709,6.73763944 C74.6259458,6.54132958 74.0492765,6.44349859 73.5193641,6.44349859 C73.0777705,6.44349859 72.7589139,6.57372394 72.562145,6.83482254 C72.3653761,7.09527324 72.2666669,7.42893521 72.2666669,7.83580845 L72.2666669,8.54654085 L74.9558422,8.54654085 L74.9558422,10.8731042 Z" id="Fill-1" fill="#333E50"></path>
                <path d="M81.4530482,10.5377577 C80.7939048,10.5377577 80.2776299,10.7457296 79.9048729,11.162969 C79.5314665,11.5789127 79.3178131,12.1704338 79.2632633,12.9355887 L83.6220522,12.9355887 C83.6077653,12.1704338 83.4083988,11.5789127 83.021355,11.162969 C82.6336618,10.7457296 82.1115422,10.5377577 81.4530482,10.5377577 M81.8907454,20.1083493 C80.0581319,20.1083493 78.6255502,19.604293 77.5930004,18.5948845 C76.5611,17.5854761 76.0454745,16.1562366 76.0454745,14.3071662 C76.0454745,12.4043211 76.5221359,10.9323211 77.476108,9.89310986 C78.4300801,8.85260282 79.7483669,8.33364507 81.4322673,8.33364507 C83.0414865,8.33364507 84.2941837,8.79040563 85.190359,9.70457465 C86.0865343,10.6193915 86.5346219,11.8821239 86.5346219,13.4940676 L86.5346219,14.998462 L79.1924785,14.998462 C79.225598,15.8789408 79.4873072,16.5663493 79.9763072,17.0606873 C80.4653072,17.5550254 81.1504267,17.8025183 82.0336139,17.8025183 C82.7187335,17.8025183 83.3674865,17.7318986 83.9785741,17.5893634 C84.5896618,17.4468282 85.2273749,17.2194197 85.8930124,16.9084338 L85.8930124,19.3062648 C85.3494625,19.5770817 84.7688968,19.7785746 84.1513151,19.9107437 C83.5337335,20.0429127 82.7797773,20.1083493 81.8907454,20.1083493" id="Fill-3" fill="#333E50"></path>
                <path d="M93.7758482,10.5377577 C93.1167048,10.5377577 92.6004299,10.7457296 92.2276729,11.162969 C91.8542665,11.5789127 91.6406131,12.1704338 91.5860633,12.9355887 L95.9448522,12.9355887 C95.9305653,12.1704338 95.7311988,11.5789127 95.344155,11.162969 C94.9564618,10.7457296 94.4343422,10.5377577 93.7758482,10.5377577 M94.2135454,20.1083493 C92.3809319,20.1083493 90.9483502,19.604293 89.9158004,18.5948845 C88.8839,17.5854761 88.3682745,16.1562366 88.3682745,14.3071662 C88.3682745,12.4043211 88.8449359,10.9323211 89.798908,9.89310986 C90.7528801,8.85260282 92.0711669,8.33364507 93.7550673,8.33364507 C95.3642865,8.33364507 96.6169837,8.79040563 97.513159,9.70457465 C98.4093343,10.6193915 98.8574219,11.8821239 98.8574219,13.4940676 L98.8574219,14.998462 L91.5152785,14.998462 C91.548398,15.8789408 91.8101072,16.5663493 92.2991072,17.0606873 C92.7881072,17.5550254 93.4732267,17.8025183 94.3564139,17.8025183 C95.0415335,17.8025183 95.6902865,17.7318986 96.3013741,17.5893634 C96.9124618,17.4468282 97.5501749,17.2194197 98.2158124,16.9084338 L98.2158124,19.3062648 C97.6722625,19.5770817 97.0916968,19.7785746 96.4741151,19.9107437 C95.8565335,20.0429127 95.1025773,20.1083493 94.2135454,20.1083493" id="Fill-5" fill="#333E50"></path>
                <path d="M106.077737,17.6398338 C106.872606,17.6398338 107.453821,17.4098338 107.82398,16.9491859 C108.19414,16.488538 108.396104,15.706538 108.429873,14.602538 L108.429873,14.2669324 C108.429873,13.0476085 108.241546,12.1736085 107.864893,11.6455803 C107.488239,11.1175521 106.875853,10.8525662 106.027084,10.8525662 C105.334172,10.8525662 104.795817,11.1460592 104.41267,11.7317493 C104.028873,12.3174394 103.837299,13.1694113 103.837299,14.2870169 C103.837299,15.4046225 104.030821,16.2429887 104.417216,16.8014676 C104.804909,17.3599465 105.3582,17.6398338 106.077737,17.6398338 M104.98804,20.1089324 C103.650921,20.1089324 102.600188,19.5906225 101.83649,18.5540028 C101.072144,17.518031 100.690295,16.0823127 100.690295,14.2468479 C100.690295,12.3841718 101.079287,10.9322563 101.856622,9.89304507 C102.633307,8.85253803 103.704821,8.33358028 105.069216,8.33358028 C106.501797,8.33358028 107.595391,8.88881972 108.348698,9.99929859 L108.450654,9.99929859 C108.294148,9.15250986 108.21622,8.39707324 108.21622,7.73363662 L108.21622,4.09639718 L111.332702,4.09639718 L111.332702,19.9054958 L108.949395,19.9054958 L108.348698,18.4328479 L108.21622,18.4328479 C107.510319,19.5498056 106.434259,20.1089324 104.98804,20.1089324" id="Fill-7" fill="#333E50"></path>
                <path d="M119.917476,10.8123324 C119.149883,10.8123324 118.590098,11.0475155 118.237473,11.5185296 C117.884198,11.9888958 117.701066,12.7670085 117.686779,13.8496282 L117.686779,14.1852338 C117.686779,15.4045577 117.869261,16.2785577 118.231628,16.8065859 C118.595293,17.3346141 119.170664,17.5996 119.957739,17.5996 C120.596751,17.5996 121.103935,17.306107 121.480588,16.7204169 C121.857241,16.1347268 122.045568,15.282107 122.045568,14.1651493 C122.045568,13.0475437 121.855293,12.2091775 121.475393,11.6506986 C121.094843,11.0915718 120.575971,10.8123324 119.917476,10.8123324 M120.915608,8.33351549 C122.259871,8.33351549 123.312552,8.85636056 124.072353,9.90334648 C124.832803,10.9496845 125.212704,12.384107 125.212704,14.2053183 C125.212704,16.0822479 124.821114,17.5348113 124.037285,18.5643042 C123.252807,19.5944451 122.18519,20.1088676 120.833783,20.1088676 C119.496664,20.1088676 118.447229,19.6248958 117.686779,18.6556563 L117.473126,18.6556563 L116.954253,19.905431 L114.581337,19.905431 L114.581337,4.09633239 L117.686779,4.09633239 L117.686779,7.77438873 C117.686779,8.24151549 117.646516,8.98982535 117.565341,10.0193183 L117.686779,10.0193183 C118.41411,8.8952338 119.49017,8.33351549 120.915608,8.33351549" id="Fill-9" fill="#333E50"></path>
                <path d="M134.093346,14.642707 L132.891302,14.6828761 C131.988633,14.7100873 131.317151,14.872707 130.875557,15.1707352 C130.433964,15.4687634 130.213167,15.9229324 130.213167,16.5325944 C130.213167,17.4065944 130.715804,17.8426225 131.721079,17.8426225 C132.439968,17.8426225 133.015988,17.6365944 133.447191,17.2232423 C133.877745,16.810538 134.093346,16.2617775 134.093346,15.5769606 L134.093346,14.642707 Z M135.009653,19.9054958 L134.408956,18.3609324 L134.32778,18.3609324 C133.805012,19.018538 133.267306,19.4740028 132.713366,19.7279746 C132.160075,19.9812986 131.438589,20.1089324 130.549557,20.1089324 C129.455964,20.1089324 128.595506,19.7972986 127.967533,19.174031 C127.340211,18.5507634 127.0259,17.6638056 127.0259,16.5125099 C127.0259,15.3061437 127.448661,14.4172423 128.293533,13.8451577 C129.139055,13.2730732 130.413832,12.9556085 132.117864,12.8953549 L134.093346,12.8338056 L134.093346,12.3362282 C134.093346,11.1849324 133.503039,10.6089606 132.321127,10.6089606 C131.411314,10.6089606 130.342398,10.8830169 129.113729,11.4317775 L128.085075,9.33845352 C129.395569,8.65493239 130.848282,8.3122 132.443864,8.3122 C133.971908,8.3122 135.142131,8.6445662 135.957131,9.3086507 C136.772131,9.97208732 137.179306,10.9821437 137.179306,12.3362282 L137.179306,19.9054958 L135.009653,19.9054958 Z" id="Fill-11" fill="#333E50"></path>
                <path d="M145.000644,20.1086085 C141.456206,20.1086085 139.683986,18.1681859 139.683986,14.2873408 C139.683986,12.3566366 140.166492,10.8820451 141.130206,9.86227042 C142.093919,8.84249577 143.475847,8.33325634 145.275341,8.33325634 C146.592329,8.33325634 147.774241,8.59111549 148.81913,9.10553803 L147.902823,11.503369 C147.413823,11.3064113 146.959241,11.1457352 146.537779,11.020693 C146.116967,10.8950028 145.696154,10.8328056 145.275341,10.8328056 C143.659628,10.8328056 142.851122,11.9769746 142.851122,14.2666085 C142.851122,16.4882141 143.659628,17.5993408 145.275341,17.5993408 C145.872791,17.5993408 146.426082,17.5196507 146.935214,17.3602704 C147.444994,17.201538 147.953476,16.9527493 148.462608,16.6132563 L148.462608,19.2650592 C147.96062,19.5838197 147.452787,19.8034535 146.940409,19.9259042 C146.427381,20.047707 145.781225,20.1086085 145.000644,20.1086085" id="Fill-13" fill="#333E50"></path>
                <g id="Group-17" transform="translate(150.661355, 3.728721)">
                    <mask id="mask-2" fill="white">
                        <use xlink:href="#path-1"></use>
                    </mask>
                    <g id="Clip-16"></g>
                    <polygon id="Fill-15" fill="#333E50" mask="url(#mask-2)" points="3.4233247 9.99975211 4.77732869 8.27248451 7.96524502 4.8179493 11.4687709 4.8179493 6.94698207 9.74513239 11.7434681 16.1767099 8.15876693 16.1767099 4.87928486 11.5747662 3.54476295 12.6411887 3.54476295 16.1767099 0.439320717 16.1767099 0.439320717 0.367611268 3.54476295 0.367611268 3.54476295 7.4192169 3.38241235 9.99975211"></polygon>
                </g>
                <path d="M73.2854494,40.1602676 C71.6697363,40.1602676 70.4189873,39.6639859 69.5332024,38.6720704 C68.6461187,37.679507 68.2038757,36.2761831 68.2038757,34.4601549 C68.2038757,32.5981268 68.6532622,31.1585211 69.5533339,30.1426338 C70.4527562,29.1267465 71.7340271,28.6188028 73.397796,28.6188028 C73.933553,28.6188028 74.4699594,28.6758169 75.0063657,28.7911408 C75.5427721,28.9064648 75.9635849,29.0418732 76.2694534,29.1973662 L75.7499315,30.6298451 C75.3765251,30.4814789 74.9693498,30.3577324 74.5277562,30.2592535 C74.0861625,30.1607746 73.6965211,30.1121831 73.3562343,30.1121831 C71.0891705,30.1121831 69.9553139,31.5550282 69.9553139,34.4400704 C69.9553139,35.8084085 70.2319594,36.8579859 70.7852502,37.5894507 C71.338541,38.3215634 72.1587363,38.6876197 73.2451865,38.6876197 C74.1744813,38.6876197 75.1291028,38.4874225 76.1064534,38.0876761 L76.1064534,39.5810563 C75.3589912,39.9671972 74.419306,40.1602676 73.2854494,40.1602676" id="Fill-18" fill="#333E50"></path>
                <path d="M79.8847414,34.3792338 C79.8847414,35.8013465 80.1698291,36.885262 80.7400044,37.6309803 C81.3101797,38.3754028 82.1485582,38.747938 83.2551398,38.747938 C84.3623709,38.747938 85.2020482,38.3773465 85.7761199,37.6355155 C86.3495422,36.8936845 86.6365781,35.8084732 86.6365781,34.3792338 C86.6365781,32.9636 86.3495422,31.888107 85.7761199,31.1534028 C85.2020482,30.4186986 84.3558769,30.0506986 83.2350084,30.0506986 C82.1284267,30.0506986 81.2932952,30.4135155 80.7302633,31.1378535 C80.1665821,31.8628394 79.8847414,32.9428676 79.8847414,34.3792338 M88.3886657,34.3792338 C88.3886657,36.1946141 87.9301876,37.6115437 87.0138809,38.6306704 C86.0969247,39.651093 84.83059,40.1603324 83.2148769,40.1603324 C82.2167454,40.1603324 81.3309606,39.927093 80.5568729,39.4593183 C79.7827853,38.9915437 79.1853351,38.3216282 78.7645223,37.4476282 C78.3437096,36.5742761 78.1333032,35.551262 78.1333032,34.3792338 C78.1333032,32.5638535 78.5878849,31.1501634 79.4976976,30.1375155 C80.4075104,29.1248676 81.6699486,28.6182197 83.2856618,28.6182197 C84.8481239,28.6182197 86.0884825,29.1365296 87.0086857,30.1731493 C87.9282394,31.2091211 88.3886657,32.6111493 88.3886657,34.3792338" id="Fill-20" fill="#333E50"></path>
                <path d="M105.578607,39.9571549 L105.578607,32.7124789 C105.578607,31.8255211 105.388332,31.1601408 105.008431,30.716338 C104.627882,30.2731831 104.037575,30.0509577 103.236862,30.0509577 C102.183531,30.0509577 101.406196,30.3528732 100.904208,30.9547606 C100.401571,31.5579437 100.150902,32.4863662 100.150902,33.7387324 L100.150902,39.9571549 L98.4598578,39.9571549 L98.4598578,32.7124789 C98.4598578,31.8255211 98.2695829,31.1601408 97.8896825,30.716338 C97.5091327,30.2731831 96.9155789,30.0509577 96.1077223,30.0509577 C95.048547,30.0509577 94.2725112,30.3677746 93.7802641,31.0014085 C93.2880171,31.6343944 93.0418936,32.6723099 93.0418936,34.114507 L93.0418936,39.9571549 L91.3521486,39.9571549 L91.3521486,28.8219155 L92.7262841,28.8219155 L93.0016307,30.3457465 L93.082806,30.3457465 C93.402312,29.8034648 93.8516984,29.3803944 94.4322641,29.0758873 C95.0121805,28.7707324 95.6622323,28.6184789 96.3824195,28.6184789 C98.1273637,28.6184789 99.2677143,29.2488732 99.8041207,30.5083662 L99.885296,30.5083662 C100.218439,29.9259155 100.700296,29.4652676 101.332165,29.1264225 C101.963384,28.7882254 102.682922,28.6184789 103.490778,28.6184789 C104.753216,28.6184789 105.699396,28.9417746 106.326718,29.5883662 C106.95469,30.2356056 107.269651,31.2702817 107.269651,32.6923944 L107.269651,39.9571549 L105.578607,39.9571549 Z" id="Fill-22" fill="#333E50"></path>
                <path d="M115.701426,30.050893 C114.560426,30.050893 113.736335,30.3657662 113.226554,30.9961606 C112.717422,31.625907 112.456363,32.6288366 112.442076,34.0036535 L112.442076,34.3794282 C112.442076,35.9440761 112.703785,37.0629775 113.226554,37.7367803 C113.749323,38.411231 114.587701,38.7481324 115.741689,38.7481324 C116.706052,38.7481324 117.461307,38.3587521 118.008104,37.5793437 C118.5549,36.8005831 118.827649,35.7270338 118.827649,34.3586958 C118.827649,32.9702732 118.5549,31.9051465 118.008104,31.1639634 C117.461307,30.4214845 116.692414,30.050893 115.701426,30.050893 M115.945602,40.1605268 C115.21957,40.1605268 114.555231,40.0264141 113.955183,39.7588366 C113.353837,39.4912592 112.8499,39.0804986 112.442076,38.5246113 L112.319988,38.5246113 C112.401813,39.1750901 112.442076,39.791231 112.442076,40.3736817 L112.442076,44.9561887 L110.752331,44.9561887 L110.752331,28.8218507 L112.126466,28.8218507 L112.3609,30.3456817 L112.442076,30.3456817 C112.876526,29.7360197 113.38306,29.2961042 113.959729,29.0246394 C114.537048,28.7538225 115.198789,28.6184141 115.945602,28.6184141 C117.42559,28.6184141 118.567888,29.1231183 119.372498,30.1325268 C120.177108,31.1419352 120.579737,32.5569211 120.579737,34.3794282 C120.579737,36.2077662 120.170614,37.6285831 119.352367,38.641231 C118.53412,39.6538789 117.398315,40.1605268 115.945602,40.1605268" id="Fill-24" fill="#333E50"></path>
                <path d="M126.577618,38.7682817 C127.629649,38.7682817 128.456988,38.4806197 129.057036,37.9046479 C129.658382,37.3286761 129.958406,36.5227042 129.958406,35.4867324 L129.958406,34.4812113 L128.268661,34.551831 C126.923749,34.5991268 125.954841,34.8077465 125.360637,35.1770423 C124.766434,35.5456901 124.469657,36.1197183 124.469657,36.8984789 C124.469657,37.5087887 124.654088,37.9720282 125.024247,38.2907887 C125.394406,38.6095493 125.912629,38.7682817 126.577618,38.7682817 L126.577618,38.7682817 Z M130.396753,39.9571549 L130.060363,38.3724225 L129.978538,38.3724225 C129.422,39.0701972 128.866761,39.5418592 128.31412,39.7893521 C127.760179,40.0368451 127.069865,40.1599437 126.241227,40.1599437 C125.134645,40.1599437 124.267044,39.876169 123.639721,39.3066761 C123.011749,38.737831 122.697438,37.9286197 122.697438,36.8783944 C122.697438,34.6295775 124.500179,33.4510704 128.105661,33.3428732 L129.999968,33.2819718 L129.999968,32.5913239 C129.999968,31.7173239 129.810992,31.0720282 129.433689,30.6560845 C129.057036,30.2388451 128.45504,30.0308732 127.626402,30.0308732 C126.696458,30.0308732 125.644426,30.3152958 124.469657,30.8841408 L123.950135,29.5941972 C124.500179,29.296169 125.102825,29.0622817 125.757422,28.8931831 C126.412669,28.7234366 127.069865,28.6385634 127.728359,28.6385634 C129.058984,28.6385634 130.045426,28.9333521 130.686386,29.5222817 C131.327996,30.112507 131.64945,31.0571268 131.64945,32.3567887 L131.64945,39.9571549 L130.396753,39.9571549 Z" id="Fill-26" fill="#333E50"></path>
                <path d="M142.770206,39.9571549 L142.770206,32.7539437 C142.770206,31.8456056 142.563047,31.1692113 142.148728,30.7215211 C141.73441,30.2744789 141.086306,30.0509577 140.203768,30.0509577 C139.036143,30.0509577 138.18088,30.365831 137.63733,30.9962254 C137.094429,31.6259718 136.822979,32.665831 136.822979,34.114507 L136.822979,39.9571549 L135.131935,39.9571549 L135.131935,28.8219155 L136.50672,28.8219155 L136.781418,30.3457465 L136.863242,30.3457465 C137.209374,29.7969859 137.695127,29.3719718 138.319202,29.0707042 C138.943927,28.7687887 139.640087,28.6184789 140.407031,28.6184789 C141.751943,28.6184789 142.763063,28.9417746 143.442338,29.5883662 C144.120963,30.2356056 144.460601,31.2702817 144.460601,32.6923944 L144.460601,39.9571549 L142.770206,39.9571549 Z" id="Fill-28" fill="#333E50"></path>
                <path d="M146.161191,28.8215915 L147.974322,28.8215915 L150.418673,35.1721831 C150.95443,36.621507 151.287573,37.6678451 151.416155,38.3111972 L151.49798,38.3111972 C151.586298,37.9658732 151.771378,37.375 152.052569,36.5379296 C152.33441,35.701507 153.255912,33.1293944 154.817725,28.8215915 L156.630207,28.8215915 L151.833721,41.5013944 C151.358358,42.7544085 150.803119,43.6433099 150.168653,44.1680986 C149.533537,44.6935352 148.754904,44.9559296 147.831454,44.9559296 C147.315179,44.9559296 146.806047,44.8982676 146.304059,44.7835915 L146.304059,43.4320986 C146.677466,43.5130845 147.094382,43.5539014 147.556107,43.5539014 C148.717888,43.5539014 149.545876,42.9034225 150.04202,41.6031127 L150.662848,40.0177324 L146.161191,28.8215915 Z" id="Fill-30" fill="#333E50"></path>
                <path d="M28.3714163,2.88011831 C27.575249,2.88011831 26.9277948,3.52541408 26.9277948,4.31972394 L26.9277948,20.2337803 C26.9277948,21.0280901 27.575249,21.6740338 28.3714163,21.6740338 L39.9554562,21.6740338 C40.2385956,21.6740338 40.5165398,21.7576113 40.7529223,21.9137521 L45.7656594,25.2309352 L45.7656594,4.31972394 C45.7656594,3.52541408 45.1188546,2.88011831 44.3226873,2.88011831 L28.3714163,2.88011831 Z M47.2092809,29.3534423 C46.9306873,29.3534423 46.6520936,29.2731042 46.4111653,29.1137239 L39.5203566,24.553893 L28.3714163,24.553893 C25.9842131,24.553893 24.0418506,22.616062 24.0418506,20.2337803 L24.0418506,4.31972394 C24.0418506,1.93809014 25.9842131,0.00025915493 28.3714163,0.00025915493 L44.3226873,0.00025915493 C46.7098904,0.00025915493 48.652253,1.93809014 48.652253,4.31972394 L48.652253,27.9138366 C48.652253,28.4438085 48.3600219,28.9316676 47.8924522,29.1830479 C47.6781494,29.2964282 47.4437151,29.3534423 47.2092809,29.3534423 L47.2092809,29.3534423 Z" id="Fill-32" fill="#27C79A"></path>
                <path d="M13.0133745,45.8412676 C12.7795896,45.8412676 12.544506,45.7849014 12.3308526,45.6702254 C11.8626335,45.419493 11.5704024,44.9322817 11.5704024,44.4010141 L11.5704024,23.8299437 C11.5704024,21.4489577 13.5127649,19.5104789 15.8999681,19.5104789 L18.3053546,19.5104789 C19.1028207,19.5104789 19.7489761,20.1551268 19.7489761,20.9507324 C19.7489761,21.7456901 19.1028207,22.390338 18.3053546,22.390338 L15.8999681,22.390338 C15.1044502,22.390338 14.456996,23.0362817 14.456996,23.8299437 L14.456996,41.7187606 L18.641745,38.9496901 C18.8781275,38.7929014 19.1554223,38.7093239 19.4398606,38.7093239 L29.3705219,38.7093239 C30.1666892,38.7093239 30.8141434,38.0640282 30.8141434,37.2703662 L30.8141434,30.3133521 C30.8141434,29.5183944 31.4602988,28.8737465 32.2577649,28.8737465 C33.0545817,28.8737465 33.7007371,29.5183944 33.7007371,30.3133521 L33.7007371,37.2703662 C33.7007371,39.6513521 31.7583745,41.589831 29.3705219,41.589831 L19.8743108,41.589831 L13.81149,45.6015493 C13.5705618,45.7609296 13.2926175,45.8412676 13.0133745,45.8412676" id="Fill-34" fill="#5185F8"></path>
                <path d="M7.77951594,28.2528113 C8.08148805,28.898107 7.86393825,29.6671493 7.26908566,30.0610648 L2.24141235,33.3879662 C2.00048406,33.5473465 1.72253984,33.6276845 1.44329681,33.6276845 C1.20951195,33.6276845 0.974428287,33.5713183 0.760125498,33.4566423 C0.292555777,33.2059099 0.000324701195,32.7186986 0.000324701195,32.187431 L0.000324701195,11.6163606 C0.000324701195,9.23148732 1.93879084,7.29689577 4.32989044,7.29689577 L18.3433446,7.29689577 C19.0979502,7.29689577 19.7856673,7.83852958 19.860998,8.58813521 C19.9473685,9.45047324 19.2713406,10.1774028 18.4258187,10.1774028 L4.32989044,10.1774028 C3.53307371,10.1774028 2.88691833,10.8214028 2.88691833,11.6163606 L2.88691833,29.5051775 L5.67350398,27.6606423 C6.40927689,27.1740789 7.40675896,27.4546141 7.77951594,28.2528113" id="Fill-36" fill="#98D2D5"></path>
            </g>
        </g>
    </g>
</svg>